<?xml version="1.0" encoding="UTF-8"?>
<svg id="Capa_1" data-name="Capa 1" xmlns="http://www.w3.org/2000/svg" viewBox="0 0 1080 1080">
  <defs>
    <style>
      .cls-1 {
        fill: #fff;
      }
    </style>
  </defs>
  <g>
    <g>
      <path class="cls-1" d="M284.15,699.08h-29.23c-.57,0-1.06-.39-1.19-.93l-4.48-18.21c-.14-.55-.63-.93-1.19-.93h-30.22c-.56,0-1.05.38-1.19.92l-4.77,18.25c-.14.54-.63.92-1.19.92h-26.77c-.82,0-1.4-.78-1.18-1.57l30.19-105.68c.15-.53.63-.89,1.18-.89h40.01c.55,0,1.03.36,1.18.89l30.04,105.68c.22.78-.37,1.56-1.18,1.56ZM245.39,664.66l-10.98-44.58c-.3-1.24-2.06-1.25-2.38-.01l-11.52,44.58c-.2.78.39,1.54,1.19,1.54h22.49c.8,0,1.38-.75,1.19-1.52Z"/>
      <path class="cls-1" d="M290.25,645.95c0-33.83,18.69-57.47,46.5-57.47s42.9,19.42,43.69,39.9c.02.6-.4,1.13-.98,1.26l-26.9,5.83c-.7.15-1.36-.31-1.46-1.01-1.34-8.73-5.8-20.49-14.19-20.49-9.42,0-15.91,10.66-15.91,28.42,0,20.85,7.41,30.43,19.46,31.36,11.42.7,29.74-5.26,36.64-8.03.85-.34,1.74.34,1.66,1.25l-2.09,25.34c-.04.46-.34.86-.76,1.04-11.74,4.93-21.6,8.05-39.77,8.05-27.65,0-45.88-23.17-45.88-55.46Z"/>
      <path class="cls-1" d="M474.52,592.18v24.42c0,.68-.55,1.23-1.23,1.23-6.35-1.29-14.36-2.36-23.63-2.29-8.47.07-15.84,1.07-21.8,2.29-.08,0-.52,0-.87.36-.22.22-.36.53-.36.87v17.01c0,.68.55,1.23,1.23,1.23h33.07c.68,0,1.23.55,1.23,1.23v11.37c0,.68-.55,1.23-1.23,1.23-3.94-.96-8.89-1.81-14.63-1.97-7.47-.2-13.77.83-18.44,1.97-.08,0-.52,0-.87.36-.22.22-.36.53-.36.87v18.63c0,.68.55,1.23,1.23,1.23,5.66,1.16,12.51,2.12,20.29,2.29,9.9.21,18.44-.91,25.15-2.29.08,0,.52,0,.87.36.22.22.36.53.36.87v24.42c0,.68-.55,1.23-1.23,1.23h-75.56c-.68,0-1.23-.55-1.23-1.23v-105.68c0-.68.55-1.23,1.23-1.23h75.56c.68,0,1.23.55,1.23,1.23Z"/>
      <path class="cls-1" d="M492.28,592.18c0-.68.55-1.23,1.23-1.23h44.96c26.42,0,42.64,13.59,42.64,33.68,0,17.44-11.36,30.27-31.3,31.71-.96.07-1.51,1.16-.95,1.94,7.17,9.89,15.91,14.71,29.47,14.86,1.82,0,3.64-.09,5.38-.21.75-.05,1.36.58,1.3,1.33l-2.12,24.73c-.05.52-.41.97-.92,1.09-3.31.78-7.59,1.18-10.43,1.18-22.14,0-37.49-18.38-46.79-38.37-.56-1.19-2.33-.81-2.33.51v34.47c0,.68-.55,1.23-1.23,1.23h-27.67c-.68,0-1.23-.55-1.23-1.23v-105.68ZM535.99,644.09c9.27,0,14.98-6.49,14.98-15.14s-6.33-15.14-18.38-15.14h-8.97c-.68,0-1.23.55-1.23,1.23v23.9c0,.42.21.82.56,1.04,3.61,2.3,8.04,4.11,13.03,4.11Z"/>
      <path class="cls-1" d="M671.62,617.68h-24.27c-.68,0-1.23.55-1.23,1.23-.59,11.03-.96,22.52-1.04,34.43-.11,15.56.28,30.43,1.04,44.53,0,.08,0,.52-.36.87-.22.22-.53.36-.87.36h-27.05c-.68,0-1.23-.55-1.23-1.23,1.29-14.07,2.02-29.57,1.76-46.29-.18-11.55-.82-22.46-1.76-32.66,0-.08,0-.52-.36-.87-.22-.22-.53-.36-.87-.36h-24.27c-.68,0-1.23-.55-1.23-1.23v-24.27c0-.68.55-1.23,1.23-1.23,17.35,3.25,30.36,9.28,40.25,9.28s21.46-5.51,40.25-9.28c.08-.02.52,0,.87.36.22.22.36.53.36.87v24.27c0,.68-.55,1.23-1.23,1.23Z"/>
      <path class="cls-1" d="M716.25,592.18v105.68c0,.68-.55,1.23-1.23,1.23h-27.67c-.68,0-1.23-.55-1.23-1.23v-105.68c0-.68.55-1.23,1.23-1.23h27.67c.68,0,1.23.55,1.23,1.23Z"/>
      <path class="cls-1" d="M730.54,696.44l-1.91-22.27c-.08-.93.86-1.61,1.71-1.23,11.29,5.09,26,7.03,26-7.01l-2.26-73.75c0-.68.55-1.23,1.23-1.23h27.52c.68,0,1.22.55,1.23,1.22l-2.18,75.77c.15,21.63-14.05,31.14-30.74,31.14-10.19,0-15.56-.14-19.8-1.6-.46-.16-.76-.57-.8-1.05Z"/>
      <path class="cls-1" d="M798.3,645.79c0-36.76,19-57.31,49.59-57.31s49.43,20.55,49.43,57.31-18.85,55.61-49.43,55.61-49.59-19.93-49.59-55.61ZM847.15,675.91c14.08,0,22.41-11.12,22.41-31.2s-8.34-30.9-22.41-30.9-22.6,10.97-22.6,30.9,8.34,31.2,22.6,31.2Z"/>
    </g>
    <g>
      <path class="cls-1" d="M436.55,776.18c-5.49-16.23,1.7-31.44,18.47-35.52,16.73-3.97,27.47,4.52,29.5,14.66.06.3-.14.6-.46.72-4.93,1.83-9.81,3.76-14.62,5.8-.38.16-.79,0-.93-.33-1.67-4.17-5.52-9.46-10.37-8.3-5.45,1.32-7.75,7.57-5.37,16.26,2.78,10.22,7.94,13.83,14.36,12.8,6.05-1.11,15.18-5.97,18.69-7.95.42-.25.97.01,1,.47.34,4.29.7,8.58,1.07,12.87.02.23-.1.46-.3.59-5.61,3.54-10.28,6.02-19.42,8.21-13.71,3.33-26.35-4.72-31.61-20.29Z"/>
      <path class="cls-1" d="M545.9,786.54c-5.03-.07-10.06-.01-15.08.16-.29.01-.56-.17-.63-.45-.88-3.05-1.79-6.1-2.72-9.15-.09-.27-.35-.46-.65-.45-5.37.25-10.72.63-16.07,1.14-.3.03-.54.24-.58.52-.54,3.16-1.06,6.31-1.55,9.47-.05.28-.28.5-.56.53-4.59.5-9.16,1.09-13.73,1.79-.41.06-.78-.28-.73-.69,2.42-18.48,5.74-36.96,9.96-55.38.07-.27.33-.49.67-.52,8.06-.82,16.13-1.38,24.22-1.67.34-.01.63.16.73.43,6.68,17.67,12.46,35.52,17.37,53.48.11.4-.2.79-.62.79ZM525.03,769.45c-2.37-7.43-4.88-14.84-7.52-22.23-.22-.62-1.24-.55-1.39.09-1.68,7.69-3.22,15.38-4.62,23.09-.07.4.28.76.72.72,4.06-.36,8.13-.65,12.2-.87.43-.02.73-.42.61-.81Z"/>
      <path class="cls-1" d="M601.85,737.19c-.68,4.08-1.35,8.16-2.03,12.23-.06.34-.42.56-.81.5-8.76-1.43-17.55-2.54-26.37-3.31-.39-.03-.74.21-.77.56-.29,3.44-.59,6.88-.88,10.32-.03.34.26.65.64.68,6.21.54,12.41,1.26,18.59,2.14.38.05.64.37.6.72-.25,1.74-.5,3.47-.76,5.21-.04.34-.39.57-.76.52-6.06-.87-12.14-1.57-18.24-2.1-.38-.03-.7.22-.73.56-.62,7.27-1.24,14.54-1.87,21.81-.03.34-.33.6-.68.57-4.75-.4-9.5-.68-14.26-.86-.34-.01-.63-.3-.61-.65.64-17.87,1.28-35.75,1.92-53.63.01-.34.36-.61.77-.6,15.27.58,30.51,2.1,45.63,4.58.4.07.69.4.64.74Z"/>
      <path class="cls-1" d="M655.25,750.22c-1.28,3.93-2.55,7.86-3.83,11.79-.11.33-.5.49-.88.37-8.52-2.75-17.12-5.17-25.78-7.25-.39-.1-.77.11-.85.44-.67,2.8-1.34,5.6-2.01,8.4-.08.34.17.68.54.77,6.13,1.48,12.22,3.12,18.28,4.94.37.11.59.47.49.8-.51,1.68-1.02,3.36-1.52,5.04-.09.33-.48.51-.84.4-5.95-1.78-11.93-3.4-17.94-4.85-.37-.09-.74.11-.82.45-.77,3.23-1.54,6.47-2.32,9.7-.08.33.14.67.5.76,7.98,1.92,15.91,4.15,23.77,6.69.35.12.55.47.44.8-1.28,3.93-2.56,7.86-3.83,11.79-.12.33-.46.51-.8.4-12.52-4.04-25.23-7.27-38.06-9.69-.35-.06-.57-.39-.51-.73,3.28-17.58,6.57-35.17,9.85-52.75.06-.34.45-.55.85-.47,15.07,2.85,30.01,6.64,44.73,11.39.39.13.63.49.52.82ZM637.76,728.62c4.04,1.05,8.06,2.16,12.07,3.34.69.2.81.97.2,1.19-5.61,2.02-11.11,4.18-16.51,6.45-.16.07-.36.08-.54.03-3.4-.86-6.8-1.67-10.21-2.44-.64-.15-.84-.86-.3-1.15,4.79-2.55,9.69-5.01,14.68-7.38.18-.08.38-.1.59-.04Z"/>
    </g>
  </g>
  <g>
    <path class="cls-1" d="M723.78,419.7c-.62-5.33-1.41-10.5-2.36-15.5-.99-2.97-2.14-6.11-3.47-9.34-2.23-5.41-7.72-18.01-9.78-24.2-1.52-4.56-2.91-8.87-4.29-12.98-1.33-3.99-3.21-7.76-5.61-11.21-26.54-38.24-72.84-59.21-140.56-66.46-13.71-1.47-27.97-2.01-42.28-1.51-1.58.06-4-.17-3.99.17h0c-48.41,2.33-96.97,16.68-126.58,47.93-6.3,6.65-10.27,15.18-11.88,24.2-.71,4-1.27,7.53-2.02,10.08-4.12,13.9-11.59,22.35-12.83,27.72-.74,3.19-1.35,6.35-1.88,9.5-.2,6.88.11,14.1.99,21.67.72,6.2,2.08,11.45,2.85,18.06,2.4,20.66,10.27,39.22,22.47,55.25,1.11,1.04,2.08,2.1,2.83,3.19.41.59.79,1.19,1.17,1.79,14.29,16.89,33.6,30.68,56.51,40.77,8.26-.54,17.4-2.49,27.01-6.64,10.79-4.65,23.99,8.35,40.93.62,10.48-4.78,21.11-15.44,40.16-18.53,44.41-7.2,63.1-48.11,60.21-84.55-5.24-66.04-83.12-114.17-138.14-69.1-45.4,37.18-18.47,114.71,33.28,100.6,8.96-2.28,11.92-5.02,13.63-6.12l.97-.6c10.03-7.33,21.05-27.82,5.47-46.2l-.11-.13c-7.13-8.86-18.79-12.9-29.8-10.03-5.03,1.31-8.6,3.46-12.84,6.99-1.09.91-4.35,5.1-6.41,9.79-.68,1.54-1.11,5.18-1.12,6.49-.03,5.25,3.55,14.52,7.93,17.66,3.51,2.51,7.66,4.35,11.97,4.59,3.29.18,6.27-.65,8.85-2.04,8.58-4.63,11.17-15.64,7.76-24.22-.56-1.41-4.28-7.61-6.18-6.03-.22.18-1.63,4.83-1.78,5.5-1.63,7.25,3.3,14.26-2.2,20.84-1.08,1.29-4.23,4.64-3.47.49.2-1.12,1.85-3.51,2.29-5.03,1.55-5.29-.86-10.94.01-16.71.44-2.89,1.48-4.13,2.29-6.53.51-1.5-.5-2.28,1.57-3.13,4.03-1.67,9.94,4.27,11.75,7.52,4.38,7.88,3.01,20.09-2.64,27.05-4.7,5.79-14.88,8.88-22.18,7.85-12.53-1.77-17.34-10.72-18.49-13.79-2.18-5.82-2.78-9.4-2.5-15.6.1-2.28,1.56-9.33,2.61-11.11,3.12-5.26,5.33-7.11,6.6-8.52,2.19-2.42,5.29-4.57,8.76-6.29.26-.45.43-.87.35-1.23-.56-2.29-4.81-5.65-4.51-8.82l4.94,5.15c1.78,1.86,4.98,1.06,5.58-1.44.24-.99.25-2.05-.01-3.1l-.64-2.58c2.08-2.54,3.64,7.36,4.92,7.47,7.81.36,4.11-2.81,3.91-7.93-.14-3.69-.23-7.77.53-11.38,2.53-1.53,2.56,5.74,2.78,12.29.12,3.66,2.92,6.68,6.52,7.37l5.11-18,1.46,1.88-3.43,16.52c2.69,1.47,6.06.56,7.64-2.07l4.71-6.28c4.78,1.15-8.9,14.01-3.07,13.98,3.69-.02,15.56-18.49,21.2-19.77,1.75,1.96-16.77,19.9-16.58,23.02.01.18.09.44.22.74.31.75.79,1.42,1.34,2.01l.15.16c.2.22.38.45.58.67,1.84.08,11.69-9.59,15.29-8.82l-12.68,10.02c-.26.45-.26,1.18-.07,1.96.79,1.1,1.51,2.25,2.17,3.44.37.24.77.38,1.17.37l27.17-11.84c.44,2.04-.98,2.3-2.26,3.15-2.77,1.85-14.88,7.45-20.46,10.91-1.76,1.09-2.54,3.24-1.95,5.21l24.37-2.15-1.66,2.11-18.76,4.7c-1.67.42-2.76,2.04-2.51,3.74l19.3,1.93c.03.62-1.15,1.88-1.48,1.96-3.37.86-9.12-.05-13.92-.19-2.29-.07-4.08,1.97-3.76,4.25,7.71,2.05,15.77,3.46,23.56,5.57,2.3.62,1.5,4.05-.83,3.58-10.95-2.23-23.37-5.11-24.38-3.73-1.08,1.48-1.12,3.4.09,4.82,3.44,4.02,17.89,9.4,22.69,13.35.22,1.82-2.06.86-2.99.52-6.93-2.52-14.48-8.05-21.28-11.3-.67-.25-1.21.2-1.66.94-1.31,2.17-.85,4.97.92,6.79l15.26,15.68c1.07,1.1-2.17,1.3-3.33.29-8.28-7.17-15.97-14.32-17.97-13.92-1.1.22-1.71,1.96-1.34,3.28.88,3.17,8.39,10.12,11.18,15.16.68,1.23.44,1.19.49,2.29-5.23-2.57-12.24-18.73-17.47-14.63-1.6,1.26-1.8,3.61-.79,5.38,3.43,5.96,6.53,12.21,9.1,18.65.86,2.14-2.29,3.51-3.28,1.44-2.63-5.48-5.17-11.04-8.47-16.07h0c-1.75-2.76-5.49-3.43-8.09-1.43l-.29.22,4.62,20.25-1.87-1.92c-5.93-18.62-8.34-17.31-12.85-16.74.88,10.51,1.67,22.45.95,33.01v.05c-.11,1.58-2.68-1.36-2.82-2.93l-2.28-25.81c-.27-3.12-3.02-5.16-6.02-4.26-.6.18-1.08.45-1.32.8-1.52,7.2-1.47,14.27-3.71,21.23-.53,1.66.04,3.95-2.64,3.49l2.24-18.58c.44-3.69-1.95-7.12-5.56-7.99-5.84,11.38-10.11,24.14-16.14,35.75-1.15,2.21-1.33-2.17-.44-4.5l9.25-29.8c.77-2.01-.06-4.28-1.94-5.34-3.59-.51-8.47,9.56-10.73,12.58-1.17,1.56-2.12,4.51-4.32,4.05l7.3-13.51c1.99-3.68.51-8.16-3.37-9.72-.57-.23-1.04-.34-1.32-.29l-10.29,10.41c-.98.99-2.5-.43-1.57-1.47,1.88-2.12,3.89-4.26,5.63-6.12,2.64-2.82,2.34-7.28-.65-9.73l-26.33,17.38c-.97.64-1.98-.73-1.09-1.47l18.76-15.61c3.32-2.76,4.01-7.59,1.6-11.17l-26.17,10.73,1.91-2.47c24.26-8.26,21.29-14.09,19.36-18.96l-19.3,3.67c1.18-2.38,3.02-2.52,5.7-3.15,2.98-.7,12.65-5.67,12.06-8.68h-26.64c.17-1.45,3.04-1.5,4.3-1.67,6.62-.94,14.73-1.28,21.35-2.28l-.24-2.27c-.39-3.66-3.15-6.62-6.77-7.27l-25.04-4.5c-1.55-.28-1.25-2.59.32-2.45l31.75,2.68.03-.37c.49-7.02-3.78-13.49-10.4-15.85-6.21-2.21-11.72-3.84-17.39-6.62-1.41-.69-3.32-.18-2.81-2.81l26.23,7.67c3.99,1.17,8.17-1.11,9.36-5.09-9.79-5.17-20.13-9.95-29.72-15.73-1.86-1.12,1.78-1.72,3.75-.82l24.1,9.83c2.51,1.15,5.46-.16,6.29-2.79-.85-1.74-11.88-8.31-14.3-10.41-1.14-.98-2.44-1.52-2.04-3.38l12.19,7.21c3.31,1.96,7.49,1.64,10.47-.79,0,0-27.52-24.09-27.82-24.37-1.05-.98-1.35-4.15-.2-3.28l24.66,18.59c3.38,2.55,8.12,2.28,11.19-.64l-13.72-19.39c1.76-.37,2.42.9,3.47,1.95,2.56,2.55,4.77,5.88,7.19,8.97,2.62,3.33,7.22,4.35,10.99,2.41l-12.76-22.22,1.87,1.18c.63.4,1.17.92,1.57,1.55,3.02,4.76,11.23,20.16,17.25,15-6.04-11.7-11.76-20.49-16.34-33.43-.9-2.54,2.7-4.12,3.93-1.72l15.06,29.41c1.13,2.2,4.19,2.66,5.76.75.36-.44.56-.9.47-1.33l-6.88-21.27c2.63-.5,1.72.56,2.41,1.98,1.48,3.02,2.79,6.4,4.01,9.81,1.94,5.44,7.92,8.28,13.36,6.3l-2-21.06c1.42-.23,1.84,1.02,2.18,2.06.98,3.02,1.2,6.95,1.74,10.23.77,4.68,5.07,7.92,9.78,7.34,0,0-.34-37.5,1.35-37.5,1.47-.06,1.32,7.08,1.32,7.08.49,30.97,5.77,29.98,10.21,30.46l4.01-37.43c1.72-.23.93,2.24.98,3.44.37,9.04-1.14,18.01-1.06,27.08.03,4.24,3.56,7.31,7.77,6.84h.06s2.59-8.4,2.59-8.4c.34-1.09,1.96-.72,1.8.4-.71,4.92,2.23,9.63,6.96,11.17l16.6-39.2c.6-1.42,2.75-.69,2.36.8-2.54,9.8-6.26,19.26-9.62,28.82-2.3,6.57.99,13.79,7.47,16.32l6.69-9.31c1.2-1.67,1.31,3.26.34,5.08-3.13,5.93,1.06,9.13,2.95,9.96,11.21-9.45,19.85-21.16,28.55-32.82,1.08-1.45,3.31.04,2.38,1.59-6.37,10.75-14.33,20.65-22.68,29.89-2.79,3.09-1.54,8.25,2.47,9.34.37.1.67.13.9.06l17.46-16.79c-.31,2.2.39,1.81-1.01,3.55-2.63,3.26-5.5,6.36-8.44,9.4-3.56,3.68-2.18,10.09,1.13,13.99l12.76-8.97c.77-.55,1.66.51.98,1.18l-3.68,3.57c-4.19,4.06-4.93,10.52-1.76,15.43l6.24-2.69,42-31.34c1.61-1.2.87,3.12-.43,4.65,0,.01-27.14,21.21-33.69,27.48-5.9,5.65-9.26,10.87-6.63,17.42h0c.83,2.08,3.11,3.18,5.25,2.56l8.75-2.54c1.87-.54,2.85,2.17,1.05,2.92-.55.23-1.1.45-1.65.66-5.5,2.11-8.31,8.24-6.45,13.84l40.37-10.15c2.18-.55,3.17,2.6,1.08,3.41-1.74.67-3.45,1.3-5.04,1.89-8.41,3.15-17.08,5.76-25.86,7.79-5.65,1.31-9.3,6.78-8.26,12.49l9.68-.26c2.12-.06,2.34,3.06.24,3.31-4.75.57-9.35.79-9.85,1.33-1.44,4.05,3.19,5.91,6.41,5.91h11.42c1.74,0,2.08,2.47.41,2.94-2.64.98-16.55-1.01-17.27-.53-.17.11-.32.27-.46.46-1.22,1.7-.1,4.11,1.95,4.52l12.23,2.45c1.81.36,1.5,3.02-.34,2.98-4.26-.08-8.48-.73-12.8-1.84-.65.15-1.06.67-1.31,1.34-.85,2.25.67,4.69,3,5.33,18.35,5.07,28.02,3.49,46.04-1.19,1.42-.37,2.74-2.21,2.41.44-16.13,7.96-27.66,9.39-45.53,6.29-3.33-.58-6.6,1.31-7.71,4.5.46.68,10.87,3.89,11.92,3.89h24.17c.24,1.48-1.84,1.23-2.95,1.48-6.39,1.47-13.57,1.97-20.11,1.35-6.48-.62-14.89-6.5-15.17,2.65.55,3.05,26.06,7.4,30.33,6.37.08,1.46-3.53,1.73-4.55,1.84-9.18.98-18.2-1.79-27.01-3.83l-.54,4c13.16,6.97,27.48,6.37,41.67,4.59,1.79-.22,2.22,2.42.44,2.77l-11.02,2.2c-9.1,1.82-18.28.23-27.18-2.4-4.47-1.32-6.66,5.27-2.28,6.83,1.47.52,3.07.98,4.61,1.46,2.53.8,11.52,3.24,13.54,3.24h18.25c.12,2.28.36,1.76-1.46,1.98-12.39,1.45-24.16.4-35.55-3.76-4.17-1.52-8.78.58-10.35,4.73,7.94,3.75,16.25,5.65,24.74,6.96,1.79.28,1.47,2.93-.34,2.8-.03,0-.07,0-.1,0-6.35-.46-13.58-1.98-20-4.27-3.4-1.21-7.16.23-8.82,3.43,3.14,2.17,6.82,3.38,10.44,4.41,3.52,1,13.16,3.46,16.27,3.46h14.26c1.05,0,1.51,1.42.61,1.95-.03.02-.05.03-.07.03h-19.73c-3.11,0-12.76-2.45-16.29-3.45-.91-.26-1.77-.58-2.6-.93-3.36-1.42-7.25-.17-9.21,2.91,18.38,10.46,28.64,10.88,48.94,7.81.45,2.51-.38,1.78-1.97,2.42-11.75,4.7-25.67,3.41-37.92.42-2.59-.63-5.65-2.33-8.48-3.45-3.98-1.56-6.4,4.37-2.54,6.21,6.91,3.3,14.77,4.6,22.3,5.7.89.13,10.48-.34,7.27,2.1-9.12.19-19.06-.59-27.84-3.24-2.73-.82-5.49-2.61-8-3.58-4.24-1.65-6.85,4.74-2.68,6.56,6.68,2.9,18.16,6.28,20.7,6.74,1.1.2,3.9.74,6.01,1.1,73.74-16.57,108.13-61.48,111.89-115.88.18-2.63,1.22-9.25.47-15.68ZM500.2,412.22c-1.96,7.03-1.02,7.57-.81,14.36.14,4.44-1.74,7.83-2.77,12-2.34,3.44-5.86-.52-7.16-2.94-2.98-5.54-3.12-12.5-1.08-18.35,1.53-4.38,6.81-11.94,12.21-9.96,1.12,1.25,0,3.47-.4,4.9Z"/>
    <path class="cls-1" d="M571.93,547.15l14.54,7.27c.49.25.78.61.92,1.02,4.26-.55,8.45-1.16,12.5-1.86-7.22-1.56-14.2-3.96-20.71-7.44-2.37-1.27-5.3-.82-7.26,1.02Z"/>
    <path class="cls-1" d="M565.74,551.59c-2.67.74-2.46,4.58.22,5.25.58.14,1.15.32,1.72.5,4.55-.3,9.03-.65,13.37-1.11-5.44-2.53-10.57-5.96-15.31-4.64Z"/>
  </g>
</svg>