<?xml version="1.0" encoding="UTF-8"?>
<svg id="Capa_1" data-name="Capa 1" xmlns="http://www.w3.org/2000/svg" viewBox="0 0 1080 1080">
  <defs>
    <style>
      .cls-1 {
        fill: #1a365c;
      }
    </style>
  </defs>
  <path class="cls-1" d="M942.92,543.92c-1.3-11.17-2.95-21.98-4.95-32.45-2.08-6.22-4.47-12.79-7.26-19.55-4.67-11.33-16.16-37.7-20.48-50.65-3.18-9.56-6.1-18.57-8.97-27.17-2.78-8.34-6.72-16.24-11.73-23.47-55.56-80.05-152.48-123.95-294.26-139.12-28.69-3.07-58.54-4.2-88.52-3.17-3.32.12-8.37-.35-8.34.35v.02c-101.35,4.86-203.01,34.9-264.98,100.33-13.19,13.93-21.51,31.77-24.88,50.66-1.49,8.37-2.65,15.76-4.23,21.1-8.62,29.1-24.26,46.8-26.86,58.04-1.55,6.68-2.82,13.3-3.94,19.89-.42,14.41.22,29.51,2.07,45.37,1.51,12.99,4.35,23.97,5.96,37.81,5.03,43.24,21.51,82.11,47.03,115.66,2.32,2.18,4.36,4.4,5.92,6.69.85,1.24,1.65,2.49,2.44,3.75,29.91,35.36,70.33,64.24,118.29,85.36,17.29-1.13,36.43-5.22,56.54-13.89,22.6-9.74,50.22,17.47,85.69,1.31,21.94-10,44.19-32.33,84.06-38.8,92.96-15.07,132.1-100.71,126.05-177-10.97-138.24-174.01-239-289.19-144.65-95.03,77.84-38.68,240.14,69.66,210.6,18.76-4.78,24.95-10.52,28.53-12.82l2.03-1.26c21-15.34,44.07-58.24,11.46-96.73l-.22-.27c-14.93-18.54-39.35-27-62.38-21-10.53,2.74-18,7.23-26.88,14.64-2.28,1.9-9.11,10.68-13.42,20.5-1.41,3.22-2.33,10.85-2.35,13.58-.07,11,7.43,30.4,16.6,36.97,7.34,5.26,16.04,9.11,25.06,9.61,6.89.38,13.12-1.35,18.53-4.28,17.97-9.7,23.39-32.75,16.24-50.71-1.17-2.94-8.97-15.92-12.94-12.63-.46.39-3.41,10.12-3.72,11.51-3.4,15.18,6.91,29.85-4.6,43.62-2.25,2.69-8.85,9.72-7.26,1.02.43-2.34,3.87-7.35,4.8-10.53,3.24-11.08-1.8-22.9.03-34.99.92-6.06,3.1-8.65,4.79-13.67,1.06-3.13-1.05-4.77,3.28-6.56,8.44-3.49,20.81,8.93,24.59,15.74,9.17,16.49,6.3,42.06-5.53,56.63-9.84,12.11-31.16,18.6-46.44,16.44-26.24-3.7-36.31-22.45-38.71-28.86-4.56-12.18-5.81-19.67-5.22-32.65.21-4.78,3.26-19.53,5.47-23.26,6.54-11.01,11.16-14.88,13.83-17.83,4.58-5.06,11.08-9.56,18.34-13.16.54-.95.91-1.82.73-2.58-1.16-4.79-10.08-11.82-9.44-18.47l10.34,10.78c3.73,3.89,10.42,2.22,11.67-3.01.5-2.08.51-4.3-.03-6.48l-1.34-5.41c4.36-5.31,7.62,15.41,10.3,15.64,16.34.76,8.6-5.89,8.2-16.6-.29-7.73-.47-16.26,1.11-23.83,5.31-3.21,5.36,12.02,5.83,25.73.26,7.66,6.12,13.98,13.64,15.43l10.7-37.68,3.05,3.93-7.18,34.58c5.63,3.08,12.69,1.17,15.99-4.33l9.86-13.14c10,2.41-18.64,29.32-6.43,29.26,7.73-.04,32.58-38.71,44.38-41.38,3.67,4.09-35.11,41.67-34.72,48.19.02.37.19.92.46,1.55.66,1.57,1.65,2.97,2.81,4.21l.32.33c.42.45.8.93,1.22,1.39,3.85.17,24.46-20.07,32.01-18.46l-26.55,20.97c-.54.95-.54,2.46-.14,4.09,1.65,2.31,3.16,4.72,4.54,7.2.78.51,1.6.8,2.45.77l56.88-24.79c.91,4.28-2.06,4.81-4.74,6.6-5.81,3.88-31.15,15.59-42.84,22.84-3.68,2.28-5.33,6.77-4.08,10.92l51.02-4.5-3.48,4.41-39.28,9.84c-3.5.88-5.77,4.26-5.25,7.84l40.4,4.04c.06,1.3-2.4,3.93-3.1,4.11-7.06,1.8-19.1-.09-29.14-.41-4.8-.15-8.55,4.13-7.88,8.89,16.14,4.3,33.01,7.25,49.32,11.66,4.81,1.3,3.14,8.48-1.74,7.49-22.93-4.66-48.93-10.7-51.04-7.81-2.26,3.1-2.35,7.12.19,10.09,7.19,8.41,37.44,19.69,47.5,27.96.47,3.81-4.31,1.8-6.25,1.09-14.52-5.28-30.3-16.86-44.55-23.66-1.39-.53-2.54.42-3.47,1.96-2.74,4.53-1.77,10.41,1.92,14.21l31.94,32.82c2.25,2.31-4.54,2.72-6.98.61-17.34-15.02-33.43-29.98-37.61-29.14-2.3.46-3.58,4.1-2.81,6.87,1.83,6.64,17.57,21.19,23.4,31.73,1.42,2.57.92,2.49,1.03,4.79-10.94-5.38-25.62-39.22-36.58-30.62-3.36,2.63-3.77,7.57-1.65,11.26,7.18,12.49,13.66,25.56,19.06,39.04,1.79,4.47-4.79,7.35-6.87,3.01-5.51-11.47-10.82-23.12-17.74-33.64h0c-3.66-5.79-11.5-7.18-16.93-3l-.6.47,9.66,42.39-3.91-4.01c-12.42-38.97-17.45-36.24-26.89-35.05,1.85,22.01,3.5,46.99,1.99,69.1v.1c-.23,3.3-5.61-2.85-5.9-6.14l-4.76-54.03c-.58-6.53-6.32-10.8-12.6-8.92-1.27.38-2.26.93-2.76,1.67-3.18,15.07-3.08,29.87-7.78,44.44-1.12,3.47.07,8.27-5.52,7.3l4.68-38.89c.93-7.72-4.07-14.91-11.63-16.72-12.23,23.81-21.17,50.55-33.78,74.85-2.41,4.64-2.77-4.54-.92-9.42l19.37-62.37c1.61-4.21-.12-8.97-4.05-11.17-7.51-1.07-17.74,20.02-22.47,26.33-2.44,3.26-4.43,9.43-9.05,8.47l15.28-28.28c4.17-7.71,1.08-17.09-7.05-20.36-1.2-.48-2.19-.72-2.76-.61l-21.54,21.79c-2.05,2.07-5.23-.89-3.29-3.07,3.94-4.44,8.15-8.92,11.79-12.81,5.52-5.91,4.89-15.25-1.36-20.38l-55.11,36.38c-2.02,1.33-4.15-1.53-2.29-3.08l39.27-32.68c6.95-5.78,8.4-15.88,3.36-23.39l-54.79,22.46,3.99-5.17c50.79-17.29,44.57-29.49,40.54-39.7l-40.4,7.68c2.46-4.98,6.32-5.28,11.94-6.6,6.25-1.47,26.48-11.88,25.24-18.17h-55.77c.35-3.04,6.37-3.13,8.99-3.5,13.86-1.96,30.83-2.67,44.69-4.78l-.51-4.75c-.82-7.66-6.6-13.86-14.18-15.22l-52.43-9.41c-3.25-.58-2.61-5.42.68-5.14l66.46,5.62.05-.78c1.02-14.69-7.91-28.24-21.78-33.17-13-4.62-24.54-8.04-36.41-13.86-2.95-1.45-6.94-.37-5.88-5.89l54.91,16.05c8.35,2.44,17.11-2.32,19.6-10.66-20.49-10.82-42.14-20.83-62.22-32.93-3.88-2.34,3.73-3.61,7.85-1.72l50.46,20.57c5.25,2.41,11.44-.33,13.18-5.85-1.78-3.64-24.86-17.4-29.93-21.79-2.38-2.06-5.1-3.19-4.27-7.07l25.52,15.09c6.93,4.1,15.69,3.44,21.92-1.66,0,0-57.62-50.44-58.25-51.03-2.21-2.04-2.82-8.68-.42-6.87l51.63,38.92c7.09,5.34,17,4.77,23.42-1.35l-28.72-40.6c3.68-.78,5.06,1.89,7.26,4.08,5.37,5.34,9.98,12.31,15.06,18.78,5.48,6.98,15.12,9.11,23,5.04l-26.71-46.51,3.92,2.47c1.32.83,2.45,1.92,3.29,3.24,6.32,9.97,23.5,42.21,36.11,31.41-12.64-24.49-24.62-42.9-34.2-69.98-1.88-5.32,5.65-8.62,8.22-3.6l31.53,61.56c2.36,4.6,8.78,5.57,12.06,1.57.76-.93,1.17-1.89.98-2.79l-14.41-44.53c5.51-1.06,3.59,1.18,5.05,4.14,3.11,6.32,5.84,13.39,8.39,20.55,4.07,11.4,16.59,17.34,27.96,13.2l-4.2-44.08c2.98-.49,3.86,2.14,4.57,4.3,2.06,6.32,2.51,14.56,3.64,21.41,1.61,9.79,10.62,16.59,20.47,15.37,0,0-.7-78.51,2.83-78.51,3.07-.12,2.76,14.83,2.76,14.83,1.03,64.84,12.07,62.77,21.38,63.77l8.4-78.36c3.61-.48,1.94,4.69,2.04,7.2.78,18.92-2.38,37.7-2.23,56.68.07,8.87,7.45,15.31,16.26,14.32h.13s5.43-17.59,5.43-17.59c.7-2.28,4.1-1.51,3.76.84-1.48,10.3,4.67,20.17,14.56,23.39l34.76-82.07c1.27-2.98,5.75-1.45,4.94,1.68-5.32,20.52-13.11,40.31-20.13,60.34-4.82,13.76,2.06,28.86,15.64,34.17l14.01-19.5c2.52-3.51,2.73,6.82.72,10.64-6.55,12.42,2.21,19.11,6.17,20.84,23.47-19.78,41.56-44.3,59.77-68.7,2.27-3.04,6.92.07,4.99,3.34-13.33,22.5-30,43.23-47.47,62.58-5.83,6.46-3.23,17.27,5.17,19.56.76.21,1.41.26,1.88.12l36.56-35.15c-.66,4.61.82,3.79-2.11,7.43-5.5,6.82-11.51,13.32-17.66,19.68-7.45,7.7-4.57,21.11,2.36,29.29l26.72-18.77c1.62-1.16,3.48,1.08,2.05,2.46l-7.71,7.47c-8.78,8.51-10.32,22.03-3.69,32.3l13.07-5.64,87.92-65.62c3.38-2.52,1.83,6.53-.91,9.73-.02.03-56.81,44.39-70.53,57.53-12.36,11.83-19.38,22.76-13.87,36.47h0c1.75,4.35,6.5,6.66,11,5.35l18.32-5.32c3.92-1.14,5.96,4.54,2.2,6.12-1.14.48-2.29.94-3.45,1.38-11.52,4.41-17.39,17.25-13.51,28.96l84.52-21.24c4.57-1.15,6.65,5.45,2.25,7.14-3.65,1.41-7.23,2.72-10.55,3.96-17.61,6.59-35.76,12.05-54.14,16.31-11.82,2.74-19.46,14.2-17.3,26.14l20.26-.54c4.43-.12,4.9,6.4.5,6.94-9.95,1.2-19.56,1.66-20.61,2.78-3.02,8.48,6.68,12.37,13.42,12.37h23.9c3.65,0,4.36,5.17.86,6.16-5.53,2.05-34.66-2.12-36.16-1.12-.35.23-.68.56-.96.96-2.56,3.55-.21,8.6,4.08,9.46l25.6,5.13c3.78.76,3.15,6.31-.71,6.24-8.92-.16-17.76-1.53-26.79-3.85-1.35.32-2.22,1.39-2.75,2.8-1.79,4.72,1.41,9.82,6.27,11.16,38.41,10.61,58.65,7.3,96.37-2.49,2.98-.77,5.74-4.62,5.05.91-33.76,16.65-57.91,19.65-95.32,13.17-6.98-1.21-13.82,2.73-16.14,9.42.96,1.41,22.76,8.15,24.95,8.15h50.61c.5,3.11-3.86,2.57-6.17,3.11-13.39,3.08-28.4,4.13-42.11,2.83-13.56-1.29-31.17-13.61-31.75,5.55,1.15,6.38,54.56,15.5,63.49,13.33.17,3.05-7.4,3.63-9.53,3.86-19.22,2.05-38.1-3.75-56.54-8.01l-1.14,8.37c27.54,14.58,57.53,13.34,87.24,9.62,3.75-.47,4.64,5.06.93,5.8l-23.07,4.61c-19.06,3.81-38.27.48-56.91-5.02-9.35-2.76-13.94,11.03-4.77,14.3,3.07,1.09,6.42,2.05,9.64,3.06,5.29,1.67,24.12,6.78,28.34,6.78h38.21c.26,4.77.75,3.69-3.06,4.14-25.94,3.04-50.58.84-74.43-7.86-8.72-3.18-18.38,1.2-21.66,9.89,16.63,7.84,34.01,11.83,51.8,14.58,3.74.58,3.07,6.14-.71,5.86-.07,0-.14-.01-.21-.02-13.3-.97-28.42-4.14-41.87-8.93-7.11-2.53-14.99.48-18.46,7.18,6.57,4.54,14.27,7.07,21.86,9.23,7.37,2.1,27.56,7.24,34.07,7.24h29.84c2.19,0,3.17,2.97,1.28,4.08-.06.04-.11.06-.14.06h-41.31c-6.51,0-26.71-5.14-34.09-7.22-1.9-.54-3.7-1.21-5.45-1.95-7.03-2.97-15.18-.36-19.28,6.08,38.47,21.89,59.95,22.78,102.46,16.36.93,5.25-.79,3.73-4.12,5.06-24.59,9.83-53.74,7.14-79.39.88-5.42-1.32-11.82-4.89-17.76-7.22-8.34-3.27-13.4,9.15-5.32,13,14.47,6.91,30.93,9.62,46.68,11.92,1.87.27,21.94-.72,15.22,4.39-19.1.4-39.91-1.24-58.27-6.77-5.72-1.72-11.5-5.46-16.75-7.5-8.87-3.45-14.33,9.93-5.6,13.72,13.98,6.07,38.01,13.14,43.33,14.11,2.3.42,8.16,1.55,12.59,2.29,154.37-34.68,226.37-128.7,234.24-242.59.38-5.51,2.56-19.36.99-32.83ZM474.86,528.26c-4.1,14.71-2.14,15.86-1.7,30.05.29,9.3-3.63,16.38-5.79,25.13-4.9,7.2-12.26-1.08-14.99-6.16-6.24-11.61-6.52-26.17-2.25-38.42,3.2-9.17,14.25-25,25.57-20.85,2.34,2.61-.01,7.27-.84,10.25Z"/>
  <path class="cls-1" d="M625.02,810.73l30.44,15.22c1.03.51,1.64,1.29,1.94,2.13,8.93-1.15,17.69-2.42,26.17-3.9-15.11-3.26-29.73-8.3-43.35-15.58-4.96-2.65-11.09-1.73-15.19,2.13Z"/>
  <path class="cls-1" d="M612.06,820.02c-5.58,1.56-5.16,9.59.46,10.99,1.22.3,2.41.67,3.61,1.04,9.53-.62,18.91-1.35,27.98-2.32-11.39-5.3-22.12-12.48-32.05-9.71Z"/>
</svg>